<svg width="91" height="91" viewBox="0 0 91 91" fill="none" xmlns="http://www.w3.org/2000/svg">
<path d="M80.2861 42.1693C77.1896 40.6212 71.3839 40.6033 71.1383 40.6033C70.4021 40.6033 69.8053 41.2001 69.8053 41.9363C69.8053 42.6725 70.4021 43.2693 71.1383 43.2693C72.6364 43.2695 76.9861 43.5002 79.0939 44.554C79.2853 44.6498 79.4886 44.6949 79.6889 44.6949C80.1779 44.6949 80.6487 44.4247 80.8822 43.9578C81.2116 43.2993 80.9446 42.4986 80.2861 42.1693Z" fill="#273B89"/>
<path d="M86.932 61.1479L81.4267 59.575C81.1891 59.5071 81.0231 59.287 81.0231 59.0398V57.2022C81.4709 56.8919 81.8982 56.5446 82.2976 56.1569C84.2331 54.2786 85.299 51.7593 85.299 49.0627V46.5269L85.8313 45.4625C86.4155 44.2939 86.7242 42.9856 86.7242 41.6792V34.8098C86.7242 34.0736 86.1274 33.4768 85.3912 33.4768H72.5636C67.8991 33.4768 64.1042 37.2718 64.1042 41.9362V42.0157C64.1042 43.102 64.361 44.1899 64.8467 45.1614L65.5294 46.5268V48.704C65.5294 52.1545 67.2298 55.2505 69.8054 57.1135L69.8057 59.0394C69.8057 59.3364 69.8057 59.4594 68.705 59.774L66.0187 60.5415L58.248 57.7158C58.2759 57.3492 58.1522 56.9763 57.8847 56.6953L55.4016 54.0865V49.7071C55.6641 49.4908 55.9229 49.2687 56.1737 49.0337C59.3062 46.0975 61.1028 41.9521 61.1028 37.6603V34.1628C62.0487 32.1045 62.528 29.9264 62.528 27.6832V13.4307C62.528 12.6945 61.9312 12.0977 61.195 12.0977H41.241C34.2187 12.0977 28.5058 17.8107 28.5058 24.8329V27.6835C28.5058 29.9267 28.9851 32.1049 29.931 34.1632V37.1724C29.931 42.1554 32.1466 46.6446 35.6322 49.6042V54.0867L33.1491 56.6955C32.8816 56.9765 32.7579 57.3494 32.7858 57.716L24.5842 60.6982C23.9899 60.9144 23.4377 61.2071 22.9363 61.5617L21.6484 60.9177C25.4821 59.249 26.6966 56.902 26.7549 56.7854C26.9426 56.4102 26.9426 55.9684 26.7549 55.5932C25.7939 53.6711 25.6775 50.1483 25.584 47.3177C25.5529 46.3753 25.5234 45.4851 25.467 44.6924C25.0126 38.2985 20.1519 33.4768 14.1605 33.4768C8.16903 33.4768 3.30817 38.2984 2.85388 44.6924C2.79754 45.4852 2.76804 46.3755 2.73693 47.318C2.64344 50.1485 2.52685 53.671 1.56602 55.593C1.37833 55.9682 1.37833 56.41 1.56602 56.7852C1.62431 56.9018 2.83628 59.244 6.67766 60.9147L3.1004 62.7033C1.18798 63.6602 0 65.5824 0 67.7203V77.5684C0 78.3046 0.596832 78.9014 1.33301 78.9014C2.06918 78.9014 2.66602 78.3046 2.66602 77.5684V67.7203C2.66602 66.5985 3.28933 65.5898 4.29264 65.0881L8.7472 62.8609L10.2967 64.3334C11.3802 65.363 12.77 65.8776 14.1605 65.8776C15.5505 65.8776 16.9411 65.3627 18.0242 64.3334L19.5735 62.8611L21.026 63.5873C20.3421 64.6816 19.9539 65.9649 19.9539 67.3091V77.5688C19.9539 78.305 20.5507 78.9018 21.2869 78.9018C22.0231 78.9018 22.6199 78.305 22.6199 77.5688V67.3091C22.6199 65.4791 23.7753 63.8294 25.4953 63.2039L34.1424 60.0596L37.7421 65.4594C38.2022 66.1497 38.9396 66.5924 39.7652 66.6742C39.8573 66.6833 39.9488 66.6877 40.0402 66.6877C40.7685 66.6877 41.4661 66.401 41.9876 65.8797L44.1837 63.6836V77.569C44.1837 78.3051 44.7805 78.902 45.5167 78.902C46.2529 78.902 46.8497 78.3051 46.8497 77.569V63.6836L49.0458 65.8797C49.5671 66.4012 50.2647 66.6879 50.9932 66.6879C51.0844 66.6879 51.1761 66.6834 51.268 66.6744C52.0938 66.5926 52.8312 66.1499 53.2913 65.4596L56.8912 60.06L65.5381 63.2043C67.2579 63.8297 68.4135 65.4795 68.4135 67.3094V77.5691C68.4135 78.3053 69.0104 78.9021 69.7465 78.9021C70.4827 78.9021 71.0795 78.3053 71.0795 77.5691V67.3094C71.0795 65.456 70.3432 63.7178 69.1079 62.4322L69.4373 62.3382C69.7694 62.2433 70.2227 62.1133 70.6777 61.8903L74.0811 65.2937V77.5691C74.0811 78.3053 74.6779 78.9021 75.4141 78.9021C76.1503 78.9021 76.7471 78.3053 76.7471 77.5691V65.2937L80.1269 61.9139C80.3066 62.0053 80.4954 62.0824 80.6941 62.1391L86.1996 63.7121C87.4562 64.0711 88.334 65.2347 88.334 66.5418V77.5691C88.334 78.3053 88.9308 78.9021 89.667 78.9021C90.4032 78.9021 91 78.3053 91 77.5691V66.5418C91 64.0503 89.3272 61.8324 86.932 61.1479ZM8.55169 58.7935C6.05825 57.8962 4.80754 56.7001 4.27362 56.0469C4.63762 55.0953 4.87365 54.0055 5.03344 52.855C5.76855 54.6176 6.99971 56.1223 8.55169 57.1958V58.7935ZM16.188 62.4011C15.0511 63.4814 13.27 63.4812 12.1334 62.4009L10.8937 61.2229C11.1029 60.831 11.2179 60.3867 11.2179 59.9212V58.5004C12.1478 58.791 13.1363 58.9477 14.1608 58.9477C15.184 58.9477 16.1721 58.7903 17.1036 58.5013L17.1034 59.921C17.1034 60.3867 17.2182 60.8312 17.4276 61.2233L16.188 62.4011ZM14.1612 56.2817C10.1806 56.2817 6.94248 53.0434 6.94248 49.063C6.94248 48.3269 6.34565 47.73 5.60947 47.73C5.53483 47.73 5.46196 47.7377 5.39068 47.7496C5.39459 47.6349 5.39833 47.5201 5.40224 47.4065C5.43192 46.49 5.46053 45.6242 5.51332 44.8816C5.68359 42.4865 6.64069 40.2794 8.20831 38.6666C9.78996 37.0393 11.9039 36.1432 14.1608 36.1432C16.4177 36.1432 18.5315 37.0393 20.1133 38.6666C21.6809 40.2794 22.638 42.4865 22.8083 44.8816C22.8609 45.624 22.8897 46.4896 22.9199 47.406C22.9226 47.4847 22.9252 47.5646 22.9279 47.6438C21.4776 45.4093 19.2378 43.7626 16.3437 42.8327C13.6701 41.9737 11.3706 42.0269 11.2735 42.0294C10.9244 42.0391 10.5931 42.1852 10.3509 42.4366L7.94579 44.9309C7.43481 45.4609 7.45009 46.3048 7.9801 46.8158C8.5101 47.3267 9.35398 47.3113 9.86497 46.7814L11.8663 44.7061C13.5897 44.7903 19.1345 45.4351 21.291 50.1836C20.7484 53.6829 17.7407 56.2817 14.1612 56.2817ZM19.7692 58.7979L19.7694 57.2081C21.3201 56.1404 22.5531 54.6386 23.2887 52.8626C23.4485 54.0104 23.6843 55.0978 24.0476 56.0473C23.5167 56.6942 22.2602 57.901 19.7692 58.7979ZM32.597 37.1722V33.865C32.597 33.6643 32.5517 33.4661 32.4644 33.2854C31.6067 31.5091 31.1718 29.6244 31.1718 27.6835V24.833C31.1718 19.2808 35.6889 14.7638 41.241 14.7638H59.862V27.6837C59.862 29.6246 59.4271 31.5093 58.5693 33.2855C58.4821 33.4663 58.4367 33.6645 58.4367 33.8651V37.6607C58.4367 41.2706 56.9855 44.619 54.3505 47.0889C54.0215 47.3971 53.68 47.6861 53.3271 47.9554C53.3192 47.9607 53.3118 47.9666 53.3041 47.9721C50.8356 49.8463 47.812 50.7572 44.6543 50.5526C37.8931 50.1149 32.597 44.2375 32.597 37.1722ZM40.1026 63.9943C40.0933 64.0036 40.0718 64.0254 40.0283 64.0208C39.9849 64.0165 39.9678 63.9911 39.9606 63.9801L35.8149 57.7615L37.149 56.3597L43.4381 60.6586L40.1026 63.9943ZM45.5169 58.8502L38.2982 53.9159V51.4276C40.166 52.4373 42.2574 53.0688 44.4818 53.2128C44.8331 53.2355 45.1824 53.2467 45.5306 53.2467C48.0795 53.2467 50.5325 52.6374 52.7356 51.4809V53.9159L45.5169 58.8502ZM51.0732 63.9804C51.0659 63.9915 51.0489 64.0169 51.0055 64.0212C50.962 64.0267 50.9406 64.0037 50.9312 63.9947L47.5957 60.6591L53.8848 56.3601L55.2191 57.7619L51.0732 63.9804ZM75.4141 62.8557L72.3891 59.8309C72.4419 59.5911 72.4717 59.3286 72.4715 59.0391L72.4714 58.4765C73.3108 58.752 74.1956 58.9156 75.1111 58.9429C75.2138 58.9461 75.3157 58.9475 75.418 58.9475C76.4297 58.9475 77.4172 58.7947 78.357 58.503V59.0398C78.357 59.3057 78.3905 59.5662 78.4534 59.8167L75.4141 62.8557ZM80.441 54.2438C79.0282 55.6149 77.1618 56.3389 75.1912 56.2782C71.3337 56.1624 68.1954 52.7647 68.1954 48.7044V46.2123C68.1954 46.0053 68.1473 45.8012 68.0547 45.6162L67.2312 43.9693C66.9296 43.3659 66.7702 42.6905 66.7702 42.0159V41.9364C66.7702 38.7418 69.3692 36.143 72.5636 36.143H84.0582V41.6794C84.0582 42.5741 83.8467 43.4701 83.4466 44.2704L82.7737 45.6162C82.6811 45.8014 82.633 46.0053 82.633 46.2123V49.0628C82.633 51.0321 81.8545 52.8721 80.441 54.2438Z" fill="#273B89"/>
<path d="M83.9658 67.6837C83.2296 67.6837 82.6328 68.2805 82.6328 69.0167V77.5684C82.6328 78.3046 83.2296 78.9014 83.9658 78.9014C84.702 78.9014 85.2988 78.3046 85.2988 77.5684V69.0167C85.2988 68.2807 84.702 67.6837 83.9658 67.6837Z" fill="#273B89"/>
<path d="M7.03418 69.4458C6.298 69.4458 5.70117 70.0426 5.70117 70.7788V77.5684C5.70117 78.3046 6.298 78.9015 7.03418 78.9015C7.77035 78.9015 8.36719 78.3046 8.36719 77.5684V70.7788C8.36719 70.0428 7.77035 69.4458 7.03418 69.4458Z" fill="#273B89"/>
<path d="M56.4364 28.1665C51.3948 23.1248 40.8464 24.0887 36.5449 24.7371C35.19 24.9413 34.2068 26.0879 34.2068 27.4633V30.5342C34.2068 31.2704 34.8036 31.8672 35.5398 31.8672C36.276 31.8672 36.8728 31.2704 36.8728 30.5342V27.4632C36.8728 27.4178 36.9027 27.3791 36.9425 27.3731C38.6606 27.1141 42.0701 26.7145 45.6026 26.95C49.7594 27.2268 52.7703 28.2703 54.5513 30.0515C55.0719 30.5721 55.916 30.5721 56.4364 30.0515C56.957 29.5309 56.957 28.6869 56.4364 28.1665Z" fill="#273B89"/>
<path d="M29.8387 70.5344C29.1026 70.5344 28.5057 71.1313 28.5057 71.8674V77.5686C28.5057 78.3048 29.1026 78.9016 29.8387 78.9016C30.5749 78.9016 31.1718 78.3048 31.1718 77.5686V71.8674C31.1718 71.1314 30.5749 70.5344 29.8387 70.5344Z" fill="#273B89"/>
<path d="M61.1949 70.5344C60.4588 70.5344 59.8619 71.1313 59.8619 71.8674V77.5686C59.8619 78.3048 60.4588 78.9016 61.1949 78.9016C61.9311 78.9016 62.528 78.3048 62.528 77.5686V71.8674C62.528 71.1314 61.9311 70.5344 61.1949 70.5344Z" fill="#273B89"/>
</svg>
